<svg width="151" height="45" viewBox="0 0 151 45" fill="none" xmlns="http://www.w3.org/2000/svg">
<g clip-path="url(#clip0_680_3714)">
<path d="M69.712 31C68.8322 31 68.1185 30.2879 68.1164 29.4082L68.0992 22.18L64.1675 28.7837C63.923 29.1944 63.4803 29.446 63.0024 29.446V29.446C62.5291 29.446 62.09 29.1991 61.844 28.7947L57.9352 22.369V29.404C57.9352 30.2854 57.2206 31 56.3392 31V31C55.4577 31 54.7432 30.2854 54.7432 29.404V18.098C54.7432 17.105 55.5482 16.3 56.5412 16.3V16.3C57.1716 16.3 57.7561 16.6302 58.0814 17.1703L63.0592 25.435L67.9592 17.1733C68.2803 16.6319 68.8631 16.3 69.4925 16.3V16.3C70.4751 16.3 71.2724 17.095 71.2752 18.0776L71.3076 29.3998C71.3101 30.2828 70.595 31 69.712 31V31Z" fill="#3F3E43"/>
<path d="M85.6358 25.393V25.393C85.6358 25.8919 85.1875 26.275 84.6885 26.275H77.3368C77.1771 26.275 77.0577 26.4232 77.1076 26.5749C77.2917 27.1348 77.6284 27.5878 78.1178 27.934C78.6918 28.34 79.4058 28.543 80.2598 28.543C80.8478 28.543 81.3658 28.459 81.8138 28.291C81.8673 28.2699 81.9203 28.2475 81.9729 28.2238C82.6576 27.915 83.5137 27.9052 84.023 28.4574V28.4574C84.4865 28.9601 84.5066 29.7509 83.9456 30.1419C82.9642 30.8259 81.7076 31.168 80.1758 31.168C78.9018 31.168 77.7748 30.923 76.7948 30.433C75.8148 29.929 75.0588 29.236 74.5268 28.354C73.9948 27.472 73.7288 26.471 73.7288 25.351C73.7288 24.245 73.9878 23.251 74.5058 22.369C75.0378 21.473 75.7588 20.78 76.6688 20.29C77.5928 19.786 78.6218 19.534 79.7558 19.534C80.8618 19.534 81.8628 19.772 82.7588 20.248C83.6548 20.724 84.3548 21.41 84.8588 22.306C85.3768 23.188 85.6358 24.217 85.6358 25.393ZM79.7768 22.012C79.0348 22.012 78.4118 22.222 77.9078 22.642C77.4038 23.062 77.0958 23.636 76.9838 24.364H82.5488C82.4368 23.65 82.1288 23.083 81.6248 22.663C81.1208 22.229 80.5048 22.012 79.7768 22.012Z" fill="#3F3E43"/>
<path d="M97.6869 15.418C98.5915 15.418 99.3249 16.1513 99.3249 17.056V29.4355C99.3249 30.2995 98.6244 31 97.7604 31H97.4979C96.7788 31 96.1959 30.417 96.1959 29.698V29.698C95.3839 30.678 94.2079 31.168 92.6679 31.168C91.6039 31.168 90.6379 30.93 89.7699 30.454C88.9159 29.978 88.2439 29.299 87.7539 28.417C87.2639 27.535 87.0189 26.513 87.0189 25.351C87.0189 24.189 87.2639 23.167 87.7539 22.285C88.2439 21.403 88.9159 20.724 89.7699 20.248C90.6379 19.772 91.6039 19.534 92.6679 19.534C94.1099 19.534 95.2369 19.989 96.0489 20.899V17.056C96.0489 16.1513 96.7822 15.418 97.6869 15.418V15.418ZM93.2349 28.48C94.0609 28.48 94.7469 28.2 95.2929 27.64C95.8389 27.066 96.1119 26.303 96.1119 25.351C96.1119 24.399 95.8389 23.643 95.2929 23.083C94.7469 22.509 94.0609 22.222 93.2349 22.222C92.3949 22.222 91.7019 22.509 91.1559 23.083C90.6099 23.643 90.3369 24.399 90.3369 25.351C90.3369 26.303 90.6099 27.066 91.1559 27.64C91.7019 28.2 92.3949 28.48 93.2349 28.48Z" fill="#3F3E43"/>
<path d="M117.557 31C116.677 31 115.963 30.2879 115.961 29.4082L115.946 23.0843C115.945 22.8307 115.611 22.7391 115.481 22.9571L112.012 28.7837C111.768 29.1944 111.325 29.446 110.847 29.446V29.446C110.374 29.446 109.935 29.1991 109.689 28.7947L106.243 23.1311C106.112 22.9151 105.78 23.0082 105.78 23.261V29.404C105.78 30.2854 105.065 31 104.184 31V31C103.302 31 102.588 30.2854 102.588 29.404V18.098C102.588 17.105 103.393 16.3 104.386 16.3V16.3C105.016 16.3 105.601 16.6302 105.926 17.1703L110.904 25.435L115.804 17.1733C116.125 16.6319 116.708 16.3 117.337 16.3V16.3C118.32 16.3 119.117 17.095 119.12 18.0776L119.152 29.3998C119.155 30.2828 118.44 31 117.557 31V31Z" fill="#3F3E43"/>
<path d="M128 25.225L126.026 27.283V29.3095C126.026 30.2431 125.269 31 124.335 31V31C123.401 31 122.645 30.2431 122.645 29.3095V17.9905C122.645 17.0568 123.401 16.3 124.335 16.3V16.3C125.269 16.3 126.026 17.0568 126.026 17.9905V23.167L132.125 16.7328C132.387 16.4565 132.751 16.3 133.132 16.3V16.3C134.344 16.3 134.973 17.7443 134.148 18.6318L130.226 22.852L134.67 28.4694C135.48 29.4932 134.751 31 133.446 31V31C132.976 31 132.531 30.7887 132.235 30.4246L128 25.225Z" fill="#3F3E43"/>
<path d="M144.552 16.3C145.854 16.3 146.981 16.517 147.933 16.951C148.899 17.385 149.641 18.001 150.159 18.799C150.677 19.597 150.936 20.542 150.936 21.634C150.936 22.712 150.677 23.657 150.159 24.469C149.641 25.267 148.899 25.883 147.933 26.317C146.981 26.737 145.854 26.947 144.552 26.947H141.591V29.299C141.591 30.2384 140.83 31 139.89 31V31C138.951 31 138.189 30.2384 138.189 29.299V19.3C138.189 17.6431 139.533 16.3 141.189 16.3H144.552ZM144.363 24.175C145.385 24.175 146.162 23.958 146.694 23.524C147.226 23.076 147.492 22.446 147.492 21.634C147.492 20.808 147.226 20.178 146.694 19.744C146.162 19.296 145.385 19.072 144.363 19.072H142.591C142.039 19.072 141.591 19.5197 141.591 20.072V23.175C141.591 23.7273 142.039 24.175 142.591 24.175H144.363Z" fill="#3F3E43"/>
<path d="M0 22.5C0 10.0736 10.0736 0 22.5 0V0C34.9264 0 45 10.0736 45 22.5V22.5C45 34.9264 34.9264 45 22.5 45V45C10.0736 45 0 34.9264 0 22.5V22.5Z" fill="#3974FC"/>
<rect x="20.0894" y="17.2752" width="10.6667" height="18.4916" rx="5.33333" transform="rotate(-30 20.0894 17.2752)" fill="white"/>
<rect x="17.1606" y="11.9419" width="10.6667" height="18.4916" rx="5.33333" transform="rotate(30 17.1606 11.9419)" fill="white"/>
<g filter="url(#filter0_f_680_3714)">
<circle cx="27.8333" cy="23.1666" r="4.83333" fill="#F2F0F0"/>
</g>
<g filter="url(#filter1_f_680_3714)">
<circle cx="18.4998" cy="23.1666" r="4.83333" fill="#F2F0F0"/>
</g>
<rect x="11.915" y="17.2752" width="10.6667" height="18.4916" rx="5.33333" transform="rotate(-30 11.915 17.2752)" fill="white"/>
<rect x="25.1606" y="11.9419" width="10.6667" height="18.4916" rx="5.33333" transform="rotate(30 25.1606 11.9419)" fill="white"/>
</g>
<defs>
<filter id="filter0_f_680_3714" x="15.5333" y="10.8666" width="24.5998" height="24.6" filterUnits="userSpaceOnUse" color-interpolation-filters="sRGB">
<feFlood flood-opacity="0" result="BackgroundImageFix"/>
<feBlend mode="normal" in="SourceGraphic" in2="BackgroundImageFix" result="shape"/>
<feGaussianBlur stdDeviation="3.73333" result="effect1_foregroundBlur_680_3714"/>
</filter>
<filter id="filter1_f_680_3714" x="6.19984" y="10.8666" width="24.5998" height="24.6" filterUnits="userSpaceOnUse" color-interpolation-filters="sRGB">
<feFlood flood-opacity="0" result="BackgroundImageFix"/>
<feBlend mode="normal" in="SourceGraphic" in2="BackgroundImageFix" result="shape"/>
<feGaussianBlur stdDeviation="3.73333" result="effect1_foregroundBlur_680_3714"/>
</filter>
<clipPath id="clip0_680_3714">
<rect width="151" height="45" fill="white"/>
</clipPath>
</defs>
</svg>
